<?xml version="1.0" standalone="no"?><!DOCTYPE svg PUBLIC "-//W3C//DTD SVG 1.1//EN" "http://www.w3.org/Graphics/SVG/1.1/DTD/svg11.dtd"><svg class="icon" width="32px" height="32.00px" viewBox="0 0 1024 1024" version="1.1" xmlns="http://www.w3.org/2000/svg"><path d="M 512 512 m -480 0 a 480 480 0 1 0 960 0 a 480 480 0 1 0 -960 0 Z" fill="#e68221" /><path d="M 511.719 992 c 211.688 0 391.313 -137.156 454.969 -327.563 c -16.875 -6.46875 -72.4688 -20.7188 -190.781 7.96875 c -146.156 35.4375 -194.906 -33.2813 -248.063 -64.3125 c -53.1563 -31.0313 -75.2813 79.7813 -241.406 51 c -92.5313 -16.0313 -169.875 7.125 -220.219 30.75 C 136.719 866.938 309.594 992 511.719 992 Z M 333.312 66.406 L 154.344 260 l 300.75 -103.594 Z M 690.688 66.406 l 178.969 193.594 l -300.75 -103.594 Z M 345.5 371.281 c 39.375 22.6875 64.0313 53.7188 55.0313 69.2813 c -9 15.5625 -48.1875 9.75 -87.5625 -13.0313 S 248.937 373.812 257.937 358.25 c 9 -15.4688 48.1875 -9.65625 87.5625 13.0313 Z M 681.781 371.281 c -39.375 22.6875 -64.0313 53.7188 -55.0313 69.2813 c 9 15.5625 48.1875 9.75 87.5625 -13.0313 s 64.0313 -53.7188 55.0313 -69.2813 c -9 -15.4688 -48.1875 -9.65625 -87.5625 13.0313 Z" fill="#ffffff" /><path d="M 255.031 562.063 a 58.9688 58.9688 0 1 0 117.938 0 a 58.9688 58.9688 0 1 0 -117.938 0 Z" fill="#342c2b" /><path d="M 509.094 667.719 c 42.6563 0 77.25 16.4063 77.25 36.5625 s -34.5938 36.5625 -77.25 36.5625 s -77.25 -16.4063 -77.25 -36.5625 c 0 -20.25 34.5938 -36.5625 77.25 -36.5625 Z" fill="#342c2b" /><path d="M 467.188 836.469 s 42.4688 76.6875 92.625 0.46875 l -25.125 -4.5 l -22.6875 -16.875 l -2.34375 -0.5625 l -25.0313 17.25 l -17.4375 4.21875 Z" fill="#d8292b" /><path d="M 411.031 812.375 c 0.09375 0.1875 48 50.8125 99.6563 0 l 2.71875 2.71875 c -54.375 53.625 -104.906 0.09375 -105 0 l 2.625 -2.71875 Z" fill="#342c2b" /><path d="M 615.688 815 c -0.1875 0.1875 -50.7188 53.625 -105.094 0 l 2.71875 -2.71875 c 51.5625 50.9063 99.4688 0.1875 99.6563 0 l 2.71875 2.71875 Z" fill="#342c2b" /><path d="M 157.531 728.656 a 89.4375 39.6563 0 1 0 178.875 0 a 89.4375 39.6563 0 1 0 -178.875 0 Z" fill="#eeb0b0" /><path d="M 702.031 728.656 a 89.4375 39.6563 0 1 0 178.875 0 a 89.4375 39.6563 0 1 0 -178.875 0 Z" fill="#eeb0b0" /><path d="M 756.406 540.688 c -0.1875 0.09375 -78.1875 20.8125 -80.5313 36.1875 c 0.75 2.4375 25.875 -0.9375 48.0938 0.65625 c 21.6563 1.59375 41.1563 3 46.5938 8.625 L 755.844 600.125 c -0.09375 -0.09375 -15.75 -1.125 -33.2813 -2.34375 c -31.4063 -2.25 -67.0313 -4.875 -67.0313 -21.0938 v -0.5625 c 1.6875 -30.375 95.3438 -55.0313 95.625 -55.125 l 5.25 19.6875 Z" fill="#342c2b" /></svg>